%TF.GenerationSoftware,KiCad,Pcbnew,9.0.6*%
%TF.CreationDate,2025-11-05T04:37:19-08:00*%
%TF.ProjectId,D1R32InterfaceShield,44315233-3249-46e7-9465-726661636553,1.0*%
%TF.SameCoordinates,Original*%
%TF.FileFunction,Copper,L1,Top*%
%TF.FilePolarity,Positive*%
%FSLAX46Y46*%
G04 Gerber Fmt 4.6, Leading zero omitted, Abs format (unit mm)*
G04 Created by KiCad (PCBNEW 9.0.6) date 2025-11-05 04:37:19*
%MOMM*%
%LPD*%
G01*
G04 APERTURE LIST*
G04 Aperture macros list*
%AMRoundRect*
0 Rectangle with rounded corners*
0 $1 Rounding radius*
0 $2 $3 $4 $5 $6 $7 $8 $9 X,Y pos of 4 corners*
0 Add a 4 corners polygon primitive as box body*
4,1,4,$2,$3,$4,$5,$6,$7,$8,$9,$2,$3,0*
0 Add four circle primitives for the rounded corners*
1,1,$1+$1,$2,$3*
1,1,$1+$1,$4,$5*
1,1,$1+$1,$6,$7*
1,1,$1+$1,$8,$9*
0 Add four rect primitives between the rounded corners*
20,1,$1+$1,$2,$3,$4,$5,0*
20,1,$1+$1,$4,$5,$6,$7,0*
20,1,$1+$1,$6,$7,$8,$9,0*
20,1,$1+$1,$8,$9,$2,$3,0*%
G04 Aperture macros list end*
%TA.AperFunction,ComponentPad*%
%ADD10C,1.422000*%
%TD*%
%TA.AperFunction,SMDPad,CuDef*%
%ADD11RoundRect,0.150000X-0.625000X0.150000X-0.625000X-0.150000X0.625000X-0.150000X0.625000X0.150000X0*%
%TD*%
%TA.AperFunction,SMDPad,CuDef*%
%ADD12RoundRect,0.250000X-0.650000X0.350000X-0.650000X-0.350000X0.650000X-0.350000X0.650000X0.350000X0*%
%TD*%
%TA.AperFunction,SMDPad,CuDef*%
%ADD13RoundRect,0.150000X0.625000X-0.150000X0.625000X0.150000X-0.625000X0.150000X-0.625000X-0.150000X0*%
%TD*%
%TA.AperFunction,SMDPad,CuDef*%
%ADD14RoundRect,0.250000X0.650000X-0.350000X0.650000X0.350000X-0.650000X0.350000X-0.650000X-0.350000X0*%
%TD*%
%TA.AperFunction,SMDPad,CuDef*%
%ADD15RoundRect,0.150000X0.150000X0.625000X-0.150000X0.625000X-0.150000X-0.625000X0.150000X-0.625000X0*%
%TD*%
%TA.AperFunction,SMDPad,CuDef*%
%ADD16RoundRect,0.250000X0.350000X0.650000X-0.350000X0.650000X-0.350000X-0.650000X0.350000X-0.650000X0*%
%TD*%
%TA.AperFunction,SMDPad,CuDef*%
%ADD17RoundRect,0.237500X-0.300000X-0.237500X0.300000X-0.237500X0.300000X0.237500X-0.300000X0.237500X0*%
%TD*%
%TA.AperFunction,SMDPad,CuDef*%
%ADD18RoundRect,0.250000X-1.500000X0.250000X-1.500000X-0.250000X1.500000X-0.250000X1.500000X0.250000X0*%
%TD*%
%TA.AperFunction,SMDPad,CuDef*%
%ADD19RoundRect,0.250001X-1.449999X0.499999X-1.449999X-0.499999X1.449999X-0.499999X1.449999X0.499999X0*%
%TD*%
%TA.AperFunction,ViaPad*%
%ADD20C,0.800000*%
%TD*%
%TA.AperFunction,Conductor*%
%ADD21C,0.250000*%
%TD*%
G04 APERTURE END LIST*
D10*
%TO.P,U8,1,OFF*%
%TO.N,unconnected-(U8-OFF-Pad1)*%
X139595000Y-127750000D03*
%TO.P,U8,2,GND*%
%TO.N,GND*%
X142135000Y-127750000D03*
%TO.P,U8,3,VRTC*%
%TO.N,unconnected-(U8-VRTC-Pad3)*%
X144675000Y-127750000D03*
%TD*%
%TO.P,U5,1,CIPO*%
%TO.N,unconnected-(U5-CIPO-Pad1)*%
X185161990Y-99805010D03*
%TO.P,U5,2,+5V*%
%TO.N,+5V*%
X187701990Y-99805010D03*
%TO.P,U5,3,SCK*%
%TO.N,unconnected-(U5-SCK-Pad3)*%
X185161990Y-102345010D03*
%TO.P,U5,4,COPI*%
%TO.N,unconnected-(U5-COPI-Pad4)*%
X187701990Y-102345010D03*
%TO.P,U5,5,RESET*%
%TO.N,unconnected-(U5-RESET-Pad5)*%
X185161990Y-104885010D03*
%TO.P,U5,6,GND*%
%TO.N,GND*%
X187701990Y-104885010D03*
%TD*%
D11*
%TO.P,J7,1,Pin_1*%
%TO.N,IO17*%
X126860000Y-113390000D03*
%TO.P,J7,2,Pin_2*%
%TO.N,IO16*%
X126860000Y-112390000D03*
%TO.P,J7,3,Pin_3*%
%TO.N,IO4*%
X126860000Y-111390000D03*
%TO.P,J7,4,Pin_4*%
%TO.N,IO0*%
X126860000Y-110390000D03*
%TO.P,J7,5,Pin_5*%
%TO.N,IO2*%
X126860000Y-109390000D03*
%TO.P,J7,6,Pin_6*%
%TO.N,unconnected-(J7-Pin_6-Pad6)*%
X126860000Y-108390000D03*
%TO.P,J7,7,Pin_7*%
%TO.N,GND*%
X126860000Y-107390000D03*
%TO.P,J7,8,Pin_8*%
%TO.N,unconnected-(J7-Pin_8-Pad8)*%
X126860000Y-106390000D03*
%TO.P,J7,9,Pin_9*%
%TO.N,unconnected-(J7-Pin_9-Pad9)*%
X126860000Y-105390000D03*
%TO.P,J7,10,Pin_10*%
%TO.N,unconnected-(J7-Pin_10-Pad10)*%
X126860000Y-104390000D03*
D12*
%TO.P,J7,MP*%
%TO.N,N/C*%
X122985000Y-103090000D03*
X122985000Y-114690000D03*
%TD*%
D11*
%TO.P,J6,1,Pin_1*%
%TO.N,GND*%
X126860000Y-127890000D03*
%TO.P,J6,2,Pin_2*%
%TO.N,IO23*%
X126860000Y-126890000D03*
%TO.P,J6,3,Pin_3*%
%TO.N,IO22*%
X126860000Y-125890000D03*
%TO.P,J6,4,Pin_4*%
%TO.N,UOTX*%
X126860000Y-124890000D03*
%TO.P,J6,5,Pin_5*%
%TO.N,UORX*%
X126860000Y-123890000D03*
%TO.P,J6,6,Pin_6*%
%TO.N,IO21*%
X126860000Y-122890000D03*
%TO.P,J6,7,Pin_7*%
%TO.N,GND*%
X126860000Y-121890000D03*
%TO.P,J6,8,Pin_8*%
%TO.N,IO19*%
X126860000Y-120890000D03*
%TO.P,J6,9,Pin_9*%
%TO.N,IO18*%
X126860000Y-119890000D03*
%TO.P,J6,10,Pin_10*%
%TO.N,IO5*%
X126860000Y-118890000D03*
D12*
%TO.P,J6,MP*%
%TO.N,N/C*%
X122985000Y-117590000D03*
X122985000Y-129190000D03*
%TD*%
D13*
%TO.P,J4,1,Pin_1*%
%TO.N,+3.3V*%
X184810000Y-118110000D03*
%TO.P,J4,2,Pin_2*%
%TO.N,unconnected-(J4-Pin_2-Pad2)*%
X184810000Y-117110000D03*
%TO.P,J4,3,Pin_3*%
%TO.N,IO36*%
X184810000Y-116110000D03*
%TO.P,J4,4,Pin_4*%
%TO.N,IO39*%
X184810000Y-115110000D03*
%TO.P,J4,5,Pin_5*%
%TO.N,IO34*%
X184810000Y-114110000D03*
%TO.P,J4,6,Pin_6*%
%TO.N,IO35*%
X184810000Y-113110000D03*
%TO.P,J4,7,Pin_7*%
%TO.N,unconnected-(J4-Pin_7-Pad7)*%
X184810000Y-112110000D03*
%TO.P,J4,8,Pin_8*%
%TO.N,unconnected-(J4-Pin_8-Pad8)*%
X184810000Y-111110000D03*
%TO.P,J4,9,Pin_9*%
%TO.N,IO25*%
X184810000Y-110110000D03*
%TO.P,J4,10,Pin_10*%
%TO.N,GND*%
X184810000Y-109110000D03*
D14*
%TO.P,J4,MP*%
%TO.N,N/C*%
X188685000Y-119410000D03*
X188685000Y-107810000D03*
%TD*%
D10*
%TO.P,U7,1*%
%TO.N,N/C*%
X167259990Y-79470010D03*
%TO.P,U7,2*%
X169799990Y-79470010D03*
%TO.P,U7,3*%
X172339990Y-79470010D03*
%TO.P,U7,4*%
X174879990Y-79470010D03*
%TO.P,U7,5*%
X177419990Y-79470010D03*
%TO.P,U7,6*%
X179959990Y-79470010D03*
%TO.P,U7,7*%
X182499990Y-79470010D03*
%TO.P,U7,8*%
X185039990Y-79470010D03*
%TD*%
%TO.P,U6,1,SCL*%
%TO.N,IO22*%
X140336000Y-79470000D03*
%TO.P,U6,2,SDA*%
%TO.N,IO21*%
X142876000Y-79470000D03*
%TO.P,U6,3,AREF*%
%TO.N,unconnected-(U6-AREF-Pad3)*%
X145416000Y-79470000D03*
%TO.P,U6,4,GND*%
%TO.N,GND*%
X147956000Y-79470000D03*
%TO.P,U6,5,D13/SCK/CANRX0*%
%TO.N,IO18*%
X150496000Y-79470000D03*
%TO.P,U6,6,D12/CIPO*%
%TO.N,IO19*%
X153036000Y-79470000D03*
%TO.P,U6,7,~D11/COPI*%
%TO.N,IO23*%
X155576000Y-79470000D03*
%TO.P,U6,8,~D10/CS/CANTX0*%
%TO.N,IO5*%
X158116000Y-79470000D03*
%TO.P,U6,9,~D9*%
%TO.N,IO13*%
X160656000Y-79470000D03*
%TO.P,U6,10,D8*%
%TO.N,IO12*%
X163196000Y-79470000D03*
%TD*%
D15*
%TO.P,J5,1,Pin_1*%
%TO.N,IO26*%
X132660000Y-82190000D03*
%TO.P,J5,2,Pin_2*%
%TO.N,IO27*%
X131660000Y-82190000D03*
%TO.P,J5,3,Pin_3*%
%TO.N,IO14*%
X130660000Y-82190000D03*
%TO.P,J5,4,Pin_4*%
%TO.N,IO12*%
X129660000Y-82190000D03*
%TO.P,J5,5,Pin_5*%
%TO.N,GND*%
X128660000Y-82190000D03*
%TO.P,J5,6,Pin_6*%
%TO.N,IO13*%
X127660000Y-82190000D03*
%TO.P,J5,7,Pin_7*%
%TO.N,unconnected-(J5-Pin_7-Pad7)*%
X126660000Y-82190000D03*
%TO.P,J5,8,Pin_8*%
%TO.N,unconnected-(J5-Pin_8-Pad8)*%
X125660000Y-82190000D03*
%TO.P,J5,9,Pin_9*%
%TO.N,unconnected-(J5-Pin_9-Pad9)*%
X124660000Y-82190000D03*
%TO.P,J5,10,Pin_10*%
%TO.N,unconnected-(J5-Pin_10-Pad10)*%
X123660000Y-82190000D03*
D16*
%TO.P,J5,MP*%
%TO.N,N/C*%
X133960000Y-78315000D03*
X122360000Y-78315000D03*
%TD*%
D10*
%TO.P,U3,1*%
%TO.N,N/C*%
X172340000Y-127730000D03*
%TO.P,U3,2*%
X174880000Y-127730000D03*
%TO.P,U3,3*%
X177420000Y-127730000D03*
%TO.P,U3,4*%
X179960000Y-127730000D03*
%TO.P,U3,5*%
X182500000Y-127730000D03*
%TO.P,U3,6*%
X185040000Y-127730000D03*
%TD*%
%TO.P,U2,1,BOOT*%
%TO.N,IO0*%
X149480000Y-127730000D03*
%TO.P,U2,2,IOREF*%
%TO.N,unconnected-(U2-IOREF-Pad2)*%
X152020000Y-127730000D03*
%TO.P,U2,3,Reset*%
%TO.N,unconnected-(U2-Reset-Pad3)*%
X154560000Y-127730000D03*
%TO.P,U2,4,+3V3*%
%TO.N,+3.3V*%
X157100000Y-127730000D03*
%TO.P,U2,5,+5V*%
%TO.N,+5V*%
X159640000Y-127730000D03*
%TO.P,U2,6,GND*%
%TO.N,GND*%
X162180000Y-127730000D03*
%TO.P,U2,7,GND*%
X164720000Y-127730000D03*
%TO.P,U2,8,VIN*%
%TO.N,VDD*%
X167260000Y-127730000D03*
%TD*%
D17*
%TO.P,C2,1*%
%TO.N,+5V*%
X159977500Y-123500000D03*
%TO.P,C2,2*%
%TO.N,GND*%
X161702500Y-123500000D03*
%TD*%
D18*
%TO.P,VDD,1,Pin_1*%
%TO.N,VDD*%
X129510000Y-95890000D03*
%TO.P,VDD,2,Pin_2*%
%TO.N,GND*%
X129510000Y-97890000D03*
D19*
%TO.P,VDD,MP*%
%TO.N,N/C*%
X123760000Y-93540000D03*
X123760000Y-100240000D03*
%TD*%
D10*
%TO.P,U4,1,GPIO42*%
%TO.N,unconnected-(U4-GPIO42-Pad1)*%
X142876000Y-87039200D03*
%TO.P,U4,2,GPIO41*%
%TO.N,unconnected-(U4-GPIO41-Pad2)*%
X142876000Y-89579200D03*
%TO.P,U4,3,GPIO43/TXD0*%
%TO.N,unconnected-(U4-GPIO43{slash}TXD0-Pad3)*%
X140336000Y-87039200D03*
%TO.P,U4,4,GPIO0/DOWNLOAD*%
%TO.N,unconnected-(U4-GPIO0{slash}DOWNLOAD-Pad4)*%
X140336000Y-89579200D03*
%TO.P,U4,5,GPIO44/RXD0*%
%TO.N,unconnected-(U4-GPIO44{slash}RXD0-Pad5)*%
X137796000Y-87039200D03*
%TO.P,U4,6,GND*%
%TO.N,GND*%
X137796000Y-89579200D03*
%TD*%
D20*
%TO.N,GND*%
X128704846Y-120794848D03*
X163340000Y-123500000D03*
X137796000Y-92416000D03*
X128669951Y-86330101D03*
X128950000Y-127890000D03*
X181270000Y-109110000D03*
X147960000Y-84420000D03*
X134070000Y-97860000D03*
%TO.N,VDD*%
X164860000Y-120620000D03*
X137890000Y-98980000D03*
%TO.N,IO13*%
X127670000Y-86320000D03*
%TO.N,IO12*%
X138123000Y-83590000D03*
%TO.N,IO19*%
X140420000Y-110650000D03*
X138123000Y-110720000D03*
%TO.N,IO5*%
X140280000Y-108030000D03*
X137800000Y-108190000D03*
X149270000Y-98530000D03*
X156670000Y-98450000D03*
%TO.N,IO18*%
X140310000Y-109410000D03*
X137990000Y-109490000D03*
%TO.N,IO0*%
X141140000Y-121830000D03*
X131390000Y-113040000D03*
%TD*%
D21*
%TO.N,+5V*%
X164741500Y-118736000D02*
X159977500Y-123500000D01*
X159977500Y-127392500D02*
X159640000Y-127730000D01*
X186317000Y-101190000D02*
X186317000Y-118055322D01*
X159977500Y-123500000D02*
X159977500Y-127392500D01*
X185636322Y-118736000D02*
X164741500Y-118736000D01*
X186317000Y-118055322D02*
X185636322Y-118736000D01*
X187701990Y-99805010D02*
X186317000Y-101190000D01*
%TO.N,GND*%
X147960000Y-83378000D02*
X147956000Y-83374000D01*
X137800000Y-92420000D02*
X137796000Y-92416000D01*
X147956000Y-83374000D02*
X147956000Y-79470000D01*
X184810000Y-109110000D02*
X181270000Y-109110000D01*
X128660000Y-82190000D02*
X128660000Y-86320150D01*
X129510000Y-97890000D02*
X134040000Y-97890000D01*
X126860000Y-127890000D02*
X128950000Y-127890000D01*
X126860000Y-107390000D02*
X131560000Y-107390000D01*
X162180000Y-127730000D02*
X164720000Y-127730000D01*
X161702500Y-123500000D02*
X163340000Y-123500000D01*
X126860000Y-121890000D02*
X127609694Y-121890000D01*
X128660000Y-86320150D02*
X128669951Y-86330101D01*
X131560000Y-107390000D02*
X131600000Y-107350000D01*
X137796000Y-89579200D02*
X137796000Y-92416000D01*
X127609694Y-121890000D02*
X128704846Y-120794848D01*
X147960000Y-84420000D02*
X147960000Y-83378000D01*
X131600000Y-99980000D02*
X131600000Y-107350000D01*
X134040000Y-97890000D02*
X134070000Y-97860000D01*
X161702500Y-127252500D02*
X162180000Y-127730000D01*
X129510000Y-97890000D02*
X131600000Y-99980000D01*
X161702500Y-123500000D02*
X161702500Y-127252500D01*
%TO.N,VDD*%
X134800000Y-95890000D02*
X137890000Y-98980000D01*
X164860000Y-120620000D02*
X167260000Y-123020000D01*
X167260000Y-123020000D02*
X167260000Y-127730000D01*
X129510000Y-95890000D02*
X134800000Y-95890000D01*
%TO.N,+3.3V*%
X184810000Y-118110000D02*
X164026510Y-118110000D01*
X164026510Y-118110000D02*
X157100000Y-125036510D01*
X157100000Y-125036510D02*
X157100000Y-127730000D01*
%TO.N,IO13*%
X127670000Y-84640000D02*
X127660000Y-84630000D01*
X127670000Y-86320000D02*
X127670000Y-84640000D01*
X127660000Y-84630000D02*
X127660000Y-82190000D01*
%TO.N,IO12*%
X130285001Y-83590000D02*
X138123000Y-83590000D01*
X129660000Y-82190000D02*
X129660000Y-82964999D01*
X129660000Y-82964999D02*
X130285001Y-83590000D01*
%TO.N,IO19*%
X137752974Y-110720000D02*
X138123000Y-110720000D01*
X140420000Y-110650000D02*
X153036000Y-98034000D01*
X127582974Y-120890000D02*
X137752974Y-110720000D01*
X126860000Y-120890000D02*
X127582974Y-120890000D01*
X153036000Y-98034000D02*
X153036000Y-79470000D01*
%TO.N,IO5*%
X140280000Y-108030000D02*
X140280000Y-107520000D01*
X156670000Y-98450000D02*
X158116000Y-97004000D01*
X158116000Y-97004000D02*
X158116000Y-79470000D01*
X126860000Y-118890000D02*
X137560000Y-108190000D01*
X137560000Y-108190000D02*
X137800000Y-108190000D01*
X140280000Y-107520000D02*
X149270000Y-98530000D01*
%TO.N,IO23*%
X155576000Y-98948999D02*
X155576000Y-79470000D01*
X127634999Y-126890000D02*
X155576000Y-98948999D01*
X126860000Y-126890000D02*
X127634999Y-126890000D01*
%TO.N,IO18*%
X140310000Y-109410000D02*
X150496000Y-99224000D01*
X126860000Y-119890000D02*
X127590000Y-119890000D01*
X150496000Y-99224000D02*
X150496000Y-79470000D01*
X127590000Y-119890000D02*
X137990000Y-109490000D01*
%TO.N,IO21*%
X126860000Y-122890000D02*
X127634999Y-122890000D01*
X127634999Y-122890000D02*
X138848000Y-111676999D01*
X139906460Y-78433000D02*
X141839000Y-78433000D01*
X141839000Y-78433000D02*
X142876000Y-79470000D01*
X138848000Y-79491460D02*
X139906460Y-78433000D01*
X138848000Y-111676999D02*
X138848000Y-79491460D01*
%TO.N,IO22*%
X127634999Y-125890000D02*
X139299000Y-114225999D01*
X126860000Y-125890000D02*
X127634999Y-125890000D01*
X139299000Y-80507000D02*
X140336000Y-79470000D01*
X139299000Y-114225999D02*
X139299000Y-80507000D01*
%TO.N,IO0*%
X141140000Y-121830000D02*
X147040000Y-127730000D01*
X128740000Y-110390000D02*
X131390000Y-113040000D01*
X147040000Y-127730000D02*
X149480000Y-127730000D01*
X126860000Y-110390000D02*
X128740000Y-110390000D01*
%TD*%
M02*
