M48
; DRILL file {KiCad 9.0.6} date 2025-11-05T04:43:59-0800
; FORMAT={-:-/ absolute / metric / decimal}
; #@! TF.CreationDate,2025-11-05T04:43:59-08:00
; #@! TF.GenerationSoftware,Kicad,Pcbnew,9.0.6
; #@! TF.FileFunction,Plated,1,2,PTH
FMAT,2
METRIC
; #@! TA.AperFunction,Plated,PTH,ViaDrill
T1C0.400
; #@! TA.AperFunction,Plated,PTH,ComponentDrill
T2C0.850
%
G90
G05
T1
X127.67Y-86.32
X128.67Y-86.33
X128.705Y-120.795
X128.95Y-127.89
X131.39Y-113.04
X134.07Y-97.86
X137.796Y-92.416
X137.8Y-108.19
X137.89Y-98.98
X137.99Y-109.49
X138.123Y-83.59
X138.123Y-110.72
X140.28Y-108.03
X140.31Y-109.41
X140.42Y-110.65
X141.14Y-121.83
X147.96Y-84.42
X149.27Y-98.53
X156.67Y-98.45
X163.34Y-123.5
X164.86Y-120.62
X181.27Y-109.11
T2
X137.796Y-87.039
X137.796Y-89.579
X139.595Y-127.75
X140.336Y-79.47
X140.336Y-87.039
X140.336Y-89.579
X142.135Y-127.75
X142.876Y-79.47
X142.876Y-87.039
X142.876Y-89.579
X144.675Y-127.75
X145.416Y-79.47
X147.956Y-79.47
X149.48Y-127.73
X150.496Y-79.47
X152.02Y-127.73
X153.036Y-79.47
X154.56Y-127.73
X155.576Y-79.47
X157.1Y-127.73
X158.116Y-79.47
X159.64Y-127.73
X160.656Y-79.47
X162.18Y-127.73
X163.196Y-79.47
X164.72Y-127.73
X167.26Y-79.47
X167.26Y-127.73
X169.8Y-79.47
X172.34Y-79.47
X172.34Y-127.73
X174.88Y-79.47
X174.88Y-127.73
X177.42Y-79.47
X177.42Y-127.73
X179.96Y-79.47
X179.96Y-127.73
X182.5Y-79.47
X182.5Y-127.73
X185.04Y-79.47
X185.04Y-127.73
X185.162Y-99.805
X185.162Y-102.345
X185.162Y-104.885
X187.702Y-99.805
X187.702Y-102.345
X187.702Y-104.885
M30
