%TF.GenerationSoftware,KiCad,Pcbnew,9.0.6*%
%TF.CreationDate,2025-11-05T04:43:16-08:00*%
%TF.ProjectId,D1R32InterfaceShield,44315233-3249-46e7-9465-726661636553,1.0*%
%TF.SameCoordinates,Original*%
%TF.FileFunction,Soldermask,Top*%
%TF.FilePolarity,Negative*%
%FSLAX46Y46*%
G04 Gerber Fmt 4.6, Leading zero omitted, Abs format (unit mm)*
G04 Created by KiCad (PCBNEW 9.0.6) date 2025-11-05 04:43:16*
%MOMM*%
%LPD*%
G01*
G04 APERTURE LIST*
G04 Aperture macros list*
%AMRoundRect*
0 Rectangle with rounded corners*
0 $1 Rounding radius*
0 $2 $3 $4 $5 $6 $7 $8 $9 X,Y pos of 4 corners*
0 Add a 4 corners polygon primitive as box body*
4,1,4,$2,$3,$4,$5,$6,$7,$8,$9,$2,$3,0*
0 Add four circle primitives for the rounded corners*
1,1,$1+$1,$2,$3*
1,1,$1+$1,$4,$5*
1,1,$1+$1,$6,$7*
1,1,$1+$1,$8,$9*
0 Add four rect primitives between the rounded corners*
20,1,$1+$1,$2,$3,$4,$5,0*
20,1,$1+$1,$4,$5,$6,$7,0*
20,1,$1+$1,$6,$7,$8,$9,0*
20,1,$1+$1,$8,$9,$2,$3,0*%
G04 Aperture macros list end*
%ADD10C,1.422000*%
%ADD11RoundRect,0.150000X-0.625000X0.150000X-0.625000X-0.150000X0.625000X-0.150000X0.625000X0.150000X0*%
%ADD12RoundRect,0.250000X-0.650000X0.350000X-0.650000X-0.350000X0.650000X-0.350000X0.650000X0.350000X0*%
%ADD13RoundRect,0.150000X0.625000X-0.150000X0.625000X0.150000X-0.625000X0.150000X-0.625000X-0.150000X0*%
%ADD14RoundRect,0.250000X0.650000X-0.350000X0.650000X0.350000X-0.650000X0.350000X-0.650000X-0.350000X0*%
%ADD15C,4.199890*%
%ADD16RoundRect,0.150000X0.150000X0.625000X-0.150000X0.625000X-0.150000X-0.625000X0.150000X-0.625000X0*%
%ADD17RoundRect,0.250000X0.350000X0.650000X-0.350000X0.650000X-0.350000X-0.650000X0.350000X-0.650000X0*%
%ADD18RoundRect,0.237500X-0.300000X-0.237500X0.300000X-0.237500X0.300000X0.237500X-0.300000X0.237500X0*%
%ADD19RoundRect,0.250000X-1.500000X0.250000X-1.500000X-0.250000X1.500000X-0.250000X1.500000X0.250000X0*%
%ADD20RoundRect,0.250001X-1.449999X0.499999X-1.449999X-0.499999X1.449999X-0.499999X1.449999X0.499999X0*%
G04 APERTURE END LIST*
D10*
%TO.C,U8*%
X139595000Y-127750000D03*
X142135000Y-127750000D03*
X144675000Y-127750000D03*
%TD*%
%TO.C,U5*%
X185161990Y-99805010D03*
X187701990Y-99805010D03*
X185161990Y-102345010D03*
X187701990Y-102345010D03*
X185161990Y-104885010D03*
X187701990Y-104885010D03*
%TD*%
D11*
%TO.C,J7*%
X126860000Y-113390000D03*
X126860000Y-112390000D03*
X126860000Y-111390000D03*
X126860000Y-110390000D03*
X126860000Y-109390000D03*
X126860000Y-108390000D03*
X126860000Y-107390000D03*
X126860000Y-106390000D03*
X126860000Y-105390000D03*
X126860000Y-104390000D03*
D12*
X122985000Y-103090000D03*
X122985000Y-114690000D03*
%TD*%
D11*
%TO.C,J6*%
X126860000Y-127890000D03*
X126860000Y-126890000D03*
X126860000Y-125890000D03*
X126860000Y-124890000D03*
X126860000Y-123890000D03*
X126860000Y-122890000D03*
X126860000Y-121890000D03*
X126860000Y-120890000D03*
X126860000Y-119890000D03*
X126860000Y-118890000D03*
D12*
X122985000Y-117590000D03*
X122985000Y-129190000D03*
%TD*%
D13*
%TO.C,J4*%
X184810000Y-118110000D03*
X184810000Y-117110000D03*
X184810000Y-116110000D03*
X184810000Y-115110000D03*
X184810000Y-114110000D03*
X184810000Y-113110000D03*
X184810000Y-112110000D03*
X184810000Y-111110000D03*
X184810000Y-110110000D03*
X184810000Y-109110000D03*
D14*
X188685000Y-119410000D03*
X188685000Y-107810000D03*
%TD*%
D15*
%TO.C,H1*%
X187580000Y-94710010D03*
%TD*%
D10*
%TO.C,U7*%
X167259990Y-79470010D03*
X169799990Y-79470010D03*
X172339990Y-79470010D03*
X174879990Y-79470010D03*
X177419990Y-79470010D03*
X179959990Y-79470010D03*
X182499990Y-79470010D03*
X185039990Y-79470010D03*
%TD*%
%TO.C,U6*%
X140336000Y-79470000D03*
X142876000Y-79470000D03*
X145416000Y-79470000D03*
X147956000Y-79470000D03*
X150496000Y-79470000D03*
X153036000Y-79470000D03*
X155576000Y-79470000D03*
X158116000Y-79470000D03*
X160656000Y-79470000D03*
X163196000Y-79470000D03*
%TD*%
D15*
%TO.C,H4*%
X135510000Y-127730000D03*
%TD*%
D16*
%TO.C,J5*%
X132660000Y-82190000D03*
X131660000Y-82190000D03*
X130660000Y-82190000D03*
X129660000Y-82190000D03*
X128660000Y-82190000D03*
X127660000Y-82190000D03*
X126660000Y-82190000D03*
X125660000Y-82190000D03*
X124660000Y-82190000D03*
X123660000Y-82190000D03*
D17*
X133960000Y-78315000D03*
X122360000Y-78315000D03*
%TD*%
D10*
%TO.C,U3*%
X172340000Y-127730000D03*
X174880000Y-127730000D03*
X177420000Y-127730000D03*
X179960000Y-127730000D03*
X182500000Y-127730000D03*
X185040000Y-127730000D03*
%TD*%
%TO.C,U2*%
X149480000Y-127730000D03*
X152020000Y-127730000D03*
X154560000Y-127730000D03*
X157100000Y-127730000D03*
X159640000Y-127730000D03*
X162180000Y-127730000D03*
X164720000Y-127730000D03*
X167260000Y-127730000D03*
%TD*%
D18*
%TO.C,C2*%
X159977500Y-123500000D03*
X161702500Y-123500000D03*
%TD*%
D15*
%TO.C,H2*%
X136779990Y-79470010D03*
%TD*%
D19*
%TO.C,VDD*%
X129510000Y-95890000D03*
X129510000Y-97890000D03*
D20*
X123760000Y-93540000D03*
X123760000Y-100240000D03*
%TD*%
D10*
%TO.C,U4*%
X142876000Y-87039200D03*
X142876000Y-89579200D03*
X140336000Y-87039200D03*
X140336000Y-89579200D03*
X137796000Y-87039200D03*
X137796000Y-89579200D03*
%TD*%
D15*
%TO.C,H3*%
X187580000Y-122650000D03*
%TD*%
M02*
